<svg xmlns="http://www.w3.org/2000/svg" viewBox="0 0 760 520" role="img" aria-labelledby="title">
    <title id="title">Dog and cat companion silhouette</title>
    <defs>
        <filter id="softShadow" x="-20%" y="-20%" width="140%" height="160%">
            <feGaussianBlur in="SourceAlpha" stdDeviation="10"/>
            <feOffset dy="18" result="offsetblur"/>
            <feComponentTransfer>
                <feFuncA type="linear" slope=".22"/>
            </feComponentTransfer>
            <feMerge>
                <feMergeNode/>
                <feMergeNode in="SourceGraphic"/>
            </feMerge>
        </filter>
    </defs>
    <g fill="#101817" filter="url(#softShadow)">
        <path d="M62 430c46-22 112-28 177-21-25-43-39-96-39-153 0-44 9-78 23-107-21-18-31-37-25-55 7-22 33-28 64-20 32-24 79-27 115-7 32-1 55 12 58 41 27 17 36 47 18 69-17 22-50 32-88 27-5 24 0 55 9 90 13 52 8 91-19 116 42-3 83 1 113 16-64 20-164 22-235 10-75 9-136 7-171-6z"/>
        <path d="M225 125c-20 14-38 32-48 54-10 21-7 43-17 62-14-28-10-61 5-87 14-24 34-41 60-29z"/>
        <path d="M478 430c-35-8-55-34-55-76 0-44 19-79 36-112-19-16-31-36-31-56 24 4 43 17 58 14 11-36 25-58 40-58s30 24 42 63c26 20 33 48 17 77 24 40 31 88 19 128 45 7 74-19 85-72 7-34 26-62 47-57 19 4 20 30 9 61-16 45-54 80-62 98-56 8-149 9-205-10z"/>
        <path d="M631 421c35-21 51-53 55-94 4-35 18-64 39-67 18-2 28 16 22 42-10 43-46 75-58 121-17 6-37 5-58-2z"/>
    </g>
</svg>
